<svg xmlns="http://www.w3.org/2000/svg" viewBox="0 0 4219.55 332.525" width="4219.55" height="332.525" style="--bg:#FFFFFF;--fg:#27272A;background:var(--bg)">
<style>
  @import url('https://fonts.googleapis.com/css2?family=Inter:wght@400;500;600;700&amp;display=swap');
  text { font-family: 'Inter', system-ui, sans-serif; }
  svg {
    /* Derived from --bg and --fg (overridable via --line, --accent, etc.) */
    --_text:          var(--fg);
    --_text-sec:      var(--muted, color-mix(in srgb, var(--fg) 60%, var(--bg)));
    --_text-muted:    var(--muted, color-mix(in srgb, var(--fg) 40%, var(--bg)));
    --_text-faint:    color-mix(in srgb, var(--fg) 25%, var(--bg));
    --_line:          var(--line, color-mix(in srgb, var(--fg) 30%, var(--bg)));
    --_arrow:         var(--accent, color-mix(in srgb, var(--fg) 50%, var(--bg)));
    --_node-fill:     var(--surface, color-mix(in srgb, var(--fg) 3%, var(--bg)));
    --_node-stroke:   var(--border, color-mix(in srgb, var(--fg) 20%, var(--bg)));
    --_group-fill:    var(--bg);
    --_group-hdr:     color-mix(in srgb, var(--fg) 5%, var(--bg));
    --_inner-stroke:  color-mix(in srgb, var(--fg) 12%, var(--bg));
    --_key-badge:     color-mix(in srgb, var(--fg) 10%, var(--bg));
  }
</style>
<defs>
  <marker id="arrowhead" markerWidth="8" markerHeight="4.8" refX="8" refY="2.4" orient="auto">
    <polygon points="0 0, 8 2.4, 0 4.8" fill="var(--_arrow)" />
  </marker>
  <marker id="arrowhead-start" markerWidth="8" markerHeight="4.8" refX="0" refY="2.4" orient="auto-start-reverse">
    <polygon points="8 0, 0 2.4, 8 4.8" fill="var(--_arrow)" />
  </marker>
</defs>
<rect x="40" y="64" width="1262.8" height="172" rx="0" ry="0" fill="var(--_group-fill)" stroke="var(--_node-stroke)" stroke-width="1" />
<rect x="40" y="64" width="1262.8" height="28" rx="0" ry="0" fill="var(--_group-hdr)" stroke="var(--_node-stroke)" stroke-width="1" />
<text x="52" y="78" dy="0.35em" font-size="12" font-weight="600" fill="var(--_text-sec)">&quot;Provenance Assembly (TypeScript)&quot;</text>
<rect x="2315.81" y="102" width="1182.95" height="96" rx="0" ry="0" fill="var(--_group-fill)" stroke="var(--_node-stroke)" stroke-width="1" />
<rect x="2315.81" y="102" width="1182.95" height="28" rx="0" ry="0" fill="var(--_group-hdr)" stroke="var(--_node-stroke)" stroke-width="1" />
<text x="2327.81" y="116" dy="0.35em" font-size="12" font-weight="600" fill="var(--_text-sec)">&quot;Stage5Output&quot;</text>
<polyline points="247.175,206 1342.8,206 1342.8,168" fill="none" stroke="var(--_line)" stroke-width="0.75" marker-end="url(#arrowhead)" />
<polyline points="1524.95,168 1564.95,168" fill="none" stroke="var(--_line)" stroke-width="0.75" marker-end="url(#arrowhead)" />
<polyline points="1794.0339381630636,187.9660618369365 1846.58,187.9660618369365 1846.58,198 1879.16,198" fill="none" stroke="var(--_line)" stroke-width="0.75" marker-end="url(#arrowhead)" />
<polyline points="1794.0339381630636,148.0339381630635 1846.58,148.0339381630635 1846.58,138 1947.085,138" fill="none" stroke="var(--_line)" stroke-width="0.75" marker-end="url(#arrowhead)" />
<polyline points="2207.885,138 3373.8099999999995,138 3373.8099999999995,168" fill="none" stroke="var(--_line)" stroke-width="0.75" marker-end="url(#arrowhead)" />
<polyline points="2275.81,198 3373.8099999999995,198 3373.8099999999995,168" fill="none" stroke="var(--_line)" stroke-width="0.75" marker-end="url(#arrowhead)" />
<polyline points="3373.8099999999995,168 3538.76,168" fill="none" stroke="var(--_line)" stroke-width="0.75" marker-end="url(#arrowhead)" />
<polyline points="3706.80735829777,151.34735829777 3767.48,151.34735829777 3767.48,138 3868.7000000000003,138" fill="none" stroke="var(--_line)" stroke-width="0.75" marker-end="url(#arrowhead)" />
<polyline points="3706.80735829777,184.65264170223 3767.48,184.65264170223 3767.48,198 3811.5,198" fill="none" stroke="var(--_line)" stroke-width="0.75" marker-end="url(#arrowhead)" />
<polyline points="657.1000000000001,148 657.1000000000001,168 247.175,168 247.175,188" fill="none" stroke="var(--_line)" stroke-width="0.75" marker-end="url(#arrowhead)" />
<polyline points="657.1000000000001,148 657.1000000000001,188" fill="none" stroke="var(--_line)" stroke-width="0.75" marker-end="url(#arrowhead)" />
<polyline points="657.1000000000001,148 657.1000000000001,168 1081.325,168 1081.325,188" fill="none" stroke="var(--_line)" stroke-width="0.75" marker-end="url(#arrowhead)" />
<rect x="1832.86" y="184.5" width="27.44" height="27" rx="4" ry="4" fill="var(--bg)" stroke="var(--_inner-stroke)" stroke-width="0.5" />
<text x="1846.58" y="198" text-anchor="middle" dy="0.35em" font-size="11" font-weight="400" fill="var(--_text-muted)">No</text>
<rect x="1830" y="124.5" width="33.16" height="27" rx="4" ry="4" fill="var(--bg)" stroke="var(--_inner-stroke)" stroke-width="0.5" />
<text x="1846.58" y="138" text-anchor="middle" dy="0.35em" font-size="11" font-weight="400" fill="var(--_text-muted)">Yes</text>
<rect x="3742.32" y="124.5" width="50.32" height="27" rx="4" ry="4" fill="var(--bg)" stroke="var(--_inner-stroke)" stroke-width="0.5" />
<text x="3767.48" y="138" text-anchor="middle" dy="0.35em" font-size="11" font-weight="400" fill="var(--_text-muted)">&quot;true&quot;</text>
<rect x="3739.46" y="184.5" width="56.04" height="27" rx="4" ry="4" fill="var(--bg)" stroke="var(--_inner-stroke)" stroke-width="0.5" />
<text x="3767.48" y="198" text-anchor="middle" dy="0.35em" font-size="11" font-weight="400" fill="var(--_text-muted)">&quot;false&quot;</text>
<rect x="601.775" y="40" width="139.25" height="36" rx="0" ry="0" fill="#e6f3ff" stroke="#0066cc" stroke-width="2px" />
<rect x="1342.8" y="150" width="182.15" height="36" rx="0" ry="0" fill="#cce5ff" stroke="#0066cc" stroke-width="1.5px" />
<polygon points="1689.4750000000001,43.474999999999994 1814.0000000000002,168 1689.4750000000001,292.525 1564.95,168" fill="#fff0e6" stroke="#ff9900" stroke-width="1.5px" />
<rect x="1879.16" y="180" width="396.65000000000003" height="36" rx="0" ry="0" fill="#f8d7da" stroke="#dc3545" stroke-width="1px" />
<rect x="1947.085" y="120" width="260.8" height="36" rx="0" ry="0" fill="#d1e7dd" stroke="#198754" stroke-width="1px" />
<polygon points="3631.11,75.64999999999999 3723.46,168 3631.11,260.35 3538.76,168" fill="#fff0e6" stroke="#ff9900" stroke-width="1.5px" />
<rect x="3868.7000000000003" y="120" width="253.65" height="36" rx="0" ry="0" fill="#d1e7dd" stroke="#198754" stroke-width="1px" />
<rect x="3811.5" y="180" width="368.05" height="36" rx="0" ry="0" fill="#f8d7da" stroke="#dc3545" stroke-width="1px" />
<rect x="494.5250000000001" y="112" width="325.15000000000003" height="36" rx="0" ry="0" fill="#cce5ff" stroke="#0066cc" stroke-width="1.5px" />
<rect x="56" y="188" width="382.35" height="36" rx="0" ry="0" fill="#cce5ff" stroke="#0066cc" stroke-width="1.5px" />
<rect x="462.35000000000014" y="188" width="389.50000000000006" height="36" rx="0" ry="0" fill="#cce5ff" stroke="#0066cc" stroke-width="1.5px" />
<rect x="875.85" y="188" width="410.95000000000005" height="36" rx="0" ry="0" fill="#cce5ff" stroke="#0066cc" stroke-width="1.5px" />
<rect x="2331.81" y="150" width="189.3" height="36" rx="0" ry="0" fill="#d1e7dd" stroke="#198754" stroke-width="1.5px" />
<rect x="2545.1099999999997" y="150" width="532.5" height="36" rx="0" ry="0" fill="#d1e7dd" stroke="#198754" stroke-width="1.5px" />
<rect x="3101.6099999999997" y="150" width="139.25" height="36" rx="0" ry="0" fill="#d1e7dd" stroke="#198754" stroke-width="1.5px" />
<rect x="3264.8599999999997" y="150" width="217.9" height="36" rx="0" ry="0" fill="#d1e7dd" stroke="#198754" stroke-width="1.5px" />
<text x="671.4" y="58" text-anchor="middle" dy="0.35em" font-size="13" font-weight="500" fill="#000">&quot;finalProducts[</text>
<text x="1433.875" y="168" text-anchor="middle" dy="0.35em" font-size="13" font-weight="500" fill="#000">&quot;Build evidenceChain[</text>
<text x="1689.4750000000001" y="168" text-anchor="middle" dy="0.35em" font-size="13" font-weight="500" fill="#000">&quot;name_evidence&lt;br/&gt;exists?&quot;</text>
<text x="2077.485" y="198" text-anchor="middle" dy="0.35em" font-size="13" font-weight="500" fill="#000">&quot;FAIL-CLOSED:&lt;br/&gt;Confidence lowered&lt;br/&gt;+ warning&quot;</text>
<text x="2077.485" y="138" text-anchor="middle" dy="0.35em" font-size="13" font-weight="500" fill="#000">&quot;All evidence&lt;br/&gt;links present&quot;</text>
<text x="3631.11" y="168" text-anchor="middle" dy="0.35em" font-size="13" font-weight="500" fill="#000">&quot;readyForPersist?&quot;</text>
<text x="3995.525" y="138" text-anchor="middle" dy="0.35em" font-size="13" font-weight="500" fill="#000">&quot;✅ Good&lt;br/&gt;Proceed to Stage 6&quot;</text>
<text x="3995.525" y="198" text-anchor="middle" dy="0.35em" font-size="13" font-weight="500" fill="#000">&quot;❌ Bad&lt;br/&gt;Missing evidence&lt;br/&gt;Do not persist&quot;</text>
<text x="657.1000000000001" y="130" text-anchor="middle" dy="0.35em" font-size="13" font-weight="500" fill="#000">&quot;Find source block&lt;br/&gt;per product field&quot;</text>
<text x="247.175" y="206" text-anchor="middle" dy="0.35em" font-size="13" font-weight="500" fill="#000">&quot;Attach name_evidence:&lt;br/&gt;excerpt + source_type&quot;</text>
<text x="657.1000000000001" y="206" text-anchor="middle" dy="0.35em" font-size="13" font-weight="500" fill="#000">&quot;Attach price_evidence:&lt;br/&gt;excerpt + source_type&quot;</text>
<text x="1081.325" y="206" text-anchor="middle" dy="0.35em" font-size="13" font-weight="500" fill="#000">&quot;Attach duration_evidence:&lt;br/&gt;excerpt + source_type&quot;</text>
<text x="2426.46" y="168" text-anchor="middle" dy="0.35em" font-size="13" font-weight="500" fill="#000">&quot;productsWithEvidence[</text>
<text x="2811.3599999999997" y="168" text-anchor="middle" dy="0.35em" font-size="13" font-weight="500" fill="#000">&quot;EvidenceLink:&lt;br/&gt;{ source_type: html|llm,&lt;br/&gt;excerpt, confidence }&quot;</text>
<text x="3171.2349999999997" y="168" text-anchor="middle" dy="0.35em" font-size="13" font-weight="500" fill="#000">&quot;evidenceChain[</text>
<text x="3373.8099999999995" y="168" text-anchor="middle" dy="0.35em" font-size="13" font-weight="500" fill="#000">&quot;readyForPersist: boolean&quot;</text>
</svg>