<svg xmlns="http://www.w3.org/2000/svg" viewBox="0 0 3284.8700000000003 548" width="3284.8700000000003" height="548" style="--bg:#FFFFFF;--fg:#27272A;background:var(--bg)">
<style>
  @import url('https://fonts.googleapis.com/css2?family=Inter:wght@400;500;600;700&amp;display=swap');
  text { font-family: 'Inter', system-ui, sans-serif; }
  svg {
    /* Derived from --bg and --fg (overridable via --line, --accent, etc.) */
    --_text:          var(--fg);
    --_text-sec:      var(--muted, color-mix(in srgb, var(--fg) 60%, var(--bg)));
    --_text-muted:    var(--muted, color-mix(in srgb, var(--fg) 40%, var(--bg)));
    --_text-faint:    color-mix(in srgb, var(--fg) 25%, var(--bg));
    --_line:          var(--line, color-mix(in srgb, var(--fg) 30%, var(--bg)));
    --_arrow:         var(--accent, color-mix(in srgb, var(--fg) 50%, var(--bg)));
    --_node-fill:     var(--surface, color-mix(in srgb, var(--fg) 3%, var(--bg)));
    --_node-stroke:   var(--border, color-mix(in srgb, var(--fg) 20%, var(--bg)));
    --_group-fill:    var(--bg);
    --_group-hdr:     color-mix(in srgb, var(--fg) 5%, var(--bg));
    --_inner-stroke:  color-mix(in srgb, var(--fg) 12%, var(--bg));
    --_key-badge:     color-mix(in srgb, var(--fg) 10%, var(--bg));
  }
</style>
<defs>
  <marker id="arrowhead" markerWidth="8" markerHeight="4.8" refX="8" refY="2.4" orient="auto">
    <polygon points="0 0, 8 2.4, 0 4.8" fill="var(--_arrow)" />
  </marker>
  <marker id="arrowhead-start" markerWidth="8" markerHeight="4.8" refX="0" refY="2.4" orient="auto-start-reverse">
    <polygon points="8 0, 0 2.4, 8 4.8" fill="var(--_arrow)" />
  </marker>
</defs>
<rect x="469.99999999999994" y="184" width="485.85" height="324" rx="0" ry="0" fill="var(--_group-fill)" stroke="var(--_node-stroke)" stroke-width="1" />
<rect x="469.99999999999994" y="184" width="485.85" height="28" rx="0" ry="0" fill="var(--_group-hdr)" stroke="var(--_node-stroke)" stroke-width="1" />
<text x="481.99999999999994" y="198" dy="0.35em" font-size="12" font-weight="600" fill="var(--_text-sec)">&quot;Vote + Merge (TypeScript)&quot;</text>
<rect x="1711.46" y="175" width="904.1000000000001" height="96" rx="0" ry="0" fill="var(--_group-fill)" stroke="var(--_node-stroke)" stroke-width="1" />
<rect x="1711.46" y="175" width="904.1000000000001" height="28" rx="0" ry="0" fill="var(--_group-hdr)" stroke="var(--_node-stroke)" stroke-width="1" />
<text x="1723.46" y="189" dy="0.35em" font-size="12" font-weight="600" fill="var(--_text-sec)">&quot;Stage4Output&quot;</text>
<polyline points="293.65,178 333.65,178" fill="none" stroke="var(--_line)" stroke-width="0.75" marker-end="url(#arrowhead)" />
<polyline points="430,178 582.525,178" fill="none" stroke="var(--_line)" stroke-width="0.75" marker-end="url(#arrowhead)" />
<polyline points="843.3249999999999,178 1047.6,178 1047.6,223" fill="none" stroke="var(--_line)" stroke-width="0.75" marker-end="url(#arrowhead)" />
<polyline points="712.925,478 1047.6,478 1047.6,259" fill="none" stroke="var(--_line)" stroke-width="0.75" marker-end="url(#arrowhead)" />
<polyline points="1099.35,241 1139.35,241" fill="none" stroke="var(--_line)" stroke-width="0.75" marker-end="url(#arrowhead)" />
<polyline points="1319.933168805528,259.41683119447185 1370.9299999999998,259.41683119447185 1370.9299999999998,271 1403.5100000000002,271" fill="none" stroke="var(--_line)" stroke-width="0.75" marker-end="url(#arrowhead)" />
<polyline points="1319.933168805528,222.58316880552812 1370.9299999999998,222.58316880552812 1370.9299999999998,211 1449.9850000000001,211" fill="none" stroke="var(--_line)" stroke-width="0.75" marker-end="url(#arrowhead)" />
<polyline points="1624.9850000000001,211 1797.085,211 1797.085,241" fill="none" stroke="var(--_line)" stroke-width="0.75" marker-end="url(#arrowhead)" />
<polyline points="1671.46,271 2547.8100000000004,271 2547.8100000000004,241" fill="none" stroke="var(--_line)" stroke-width="0.75" marker-end="url(#arrowhead)" />
<polyline points="1974.635,241 2655.5600000000004,241" fill="none" stroke="var(--_line)" stroke-width="0.75" marker-end="url(#arrowhead)" />
<polyline points="2762.738280617271,227.82828061727045 2822.7900000000004,227.82828061727045 2822.7900000000004,211 2869.6700000000005,211" fill="none" stroke="var(--_line)" stroke-width="0.75" marker-end="url(#arrowhead)" />
<polyline points="2762.738280617271,254.17171938272955 2822.7900000000004,254.17171938272955 2822.7900000000004,271 2869.6700000000005,271" fill="none" stroke="var(--_line)" stroke-width="0.75" marker-end="url(#arrowhead)" />
<polyline points="2748.4265562913915,268.48344370860923 2822.7900000000004,268.48344370860923 2822.7900000000004,331 2898.2700000000004,331" fill="none" stroke="var(--_line)" stroke-width="0.75" marker-end="url(#arrowhead)" />
<polyline points="712.925,268 712.925,308" fill="none" stroke="var(--_line)" stroke-width="0.75" marker-end="url(#arrowhead)" />
<polyline points="712.925,344 712.925,384" fill="none" stroke="var(--_line)" stroke-width="0.75" marker-end="url(#arrowhead)" />
<polyline points="712.925,420 712.925,460" fill="none" stroke="var(--_line)" stroke-width="0.75" marker-end="url(#arrowhead)" />
<rect x="1357.2099999999998" y="257.5" width="27.44" height="27" rx="4" ry="4" fill="var(--bg)" stroke="var(--_inner-stroke)" stroke-width="0.5" />
<text x="1370.9299999999998" y="271" text-anchor="middle" dy="0.35em" font-size="11" font-weight="400" fill="var(--_text-muted)">No</text>
<rect x="1354.35" y="197.5" width="33.16" height="27" rx="4" ry="4" fill="var(--bg)" stroke="var(--_inner-stroke)" stroke-width="0.5" />
<text x="1370.9299999999998" y="211" text-anchor="middle" dy="0.35em" font-size="11" font-weight="400" fill="var(--_text-muted)">Yes</text>
<rect x="2794.7700000000004" y="197.5" width="56.04" height="27" rx="4" ry="4" fill="var(--bg)" stroke="var(--_inner-stroke)" stroke-width="0.5" />
<text x="2822.7900000000004" y="211" text-anchor="middle" dy="0.35em" font-size="11" font-weight="400" fill="var(--_text-muted)">&quot;mixed&quot;</text>
<rect x="2791.9100000000003" y="257.5" width="61.760000000000005" height="27" rx="4" ry="4" fill="var(--bg)" stroke="var(--_inner-stroke)" stroke-width="0.5" />
<text x="2822.7900000000004" y="271" text-anchor="middle" dy="0.35em" font-size="11" font-weight="400" fill="var(--_text-muted)">&quot;single&quot;</text>
<rect x="2794.7700000000004" y="317.5" width="56.04" height="27" rx="4" ry="4" fill="var(--bg)" stroke="var(--_inner-stroke)" stroke-width="0.5" />
<text x="2822.7900000000004" y="331" text-anchor="middle" dy="0.35em" font-size="11" font-weight="400" fill="var(--_text-muted)">&quot;empty&quot;</text>
<rect x="104.35" y="40" width="124.95" height="36" rx="0" ry="0" fill="#e6f3ff" stroke="#0066cc" stroke-width="2px" />
<rect x="104.35" y="100" width="124.95" height="36" rx="0" ry="0" fill="#e6f3ff" stroke="#0066cc" stroke-width="2px" />
<rect x="39.999999999999986" y="160" width="253.65" height="36" rx="0" ry="0" fill="#e6f3ff" stroke="#0066cc" stroke-width="2px" />
<rect x="333.65" y="160" width="96.35000000000001" height="36" rx="0" ry="0" fill="var(--_node-fill)" stroke="var(--_node-stroke)" stroke-width="0.75" />
<rect x="582.525" y="160" width="260.8" height="36" rx="0" ry="0" fill="#cce5ff" stroke="#0066cc" stroke-width="1.5px" />
<rect x="995.8499999999999" y="223" width="103.5" height="36" rx="0" ry="0" fill="#cce5ff" stroke="#0066cc" stroke-width="1.5px" />
<polygon points="1238.85,141.5 1338.35,241 1238.85,340.5 1139.35,241" fill="#fff0e6" stroke="#ff9900" stroke-width="1.5px" />
<rect x="1403.5100000000002" y="253" width="267.95000000000005" height="36" rx="0" ry="0" fill="#f8d7da" stroke="#dc3545" stroke-width="1px" />
<rect x="1449.9850000000001" y="193" width="175" height="36" rx="0" ry="0" fill="#cce5ff" stroke="#0066cc" stroke-width="1.5px" />
<polygon points="2715.7350000000006,180.825 2775.9100000000008,241 2715.7350000000006,301.175 2655.5600000000004,241" fill="#fff0e6" stroke="#ff9900" stroke-width="1.5px" />
<rect x="2869.6700000000005" y="193" width="375.20000000000005" height="36" rx="0" ry="0" fill="#d1e7dd" stroke="#198754" stroke-width="1px" />
<rect x="2869.6700000000005" y="253" width="375.20000000000005" height="36" rx="0" ry="0" fill="#fff3cd" stroke="#ffc107" stroke-width="1px" />
<rect x="2898.2700000000004" y="313" width="318" height="36" rx="0" ry="0" fill="#f8d7da" stroke="#dc3545" stroke-width="1px" />
<rect x="485.99999999999994" y="232" width="453.85" height="36" rx="0" ry="0" fill="#cce5ff" stroke="#0066cc" stroke-width="1.5px" />
<rect x="629" y="308" width="167.85000000000002" height="36" rx="0" ry="0" fill="#cce5ff" stroke="#0066cc" stroke-width="1.5px" />
<rect x="568.2249999999999" y="384" width="289.40000000000003" height="36" rx="0" ry="0" fill="#cce5ff" stroke="#0066cc" stroke-width="1.5px" />
<rect x="575.375" y="460" width="275.1" height="36" rx="0" ry="0" fill="#cce5ff" stroke="#0066cc" stroke-width="1.5px" />
<rect x="1727.46" y="223" width="139.25" height="36" rx="0" ry="0" fill="#d1e7dd" stroke="#198754" stroke-width="1.5px" />
<rect x="1890.71" y="223" width="167.85000000000002" height="36" rx="0" ry="0" fill="#d1e7dd" stroke="#198754" stroke-width="1.5px" />
<rect x="2082.5600000000004" y="223" width="389.50000000000006" height="36" rx="0" ry="0" fill="#d1e7dd" stroke="#198754" stroke-width="1.5px" />
<rect x="2496.0600000000004" y="223" width="103.5" height="36" rx="0" ry="0" fill="#d1e7dd" stroke="#198754" stroke-width="1.5px" />
<text x="166.825" y="58" text-anchor="middle" dy="0.35em" font-size="13" font-weight="500" fill="#000">&quot;cleanBlocks[</text>
<text x="166.825" y="118" text-anchor="middle" dy="0.35em" font-size="13" font-weight="500" fill="#000">&quot;llmProducts[</text>
<text x="166.825" y="178" text-anchor="middle" dy="0.35em" font-size="13" font-weight="500" fill="#000">&quot;skipped=true&lt;br/&gt;from Stage 2&quot;</text>
<text x="381.825" y="178" text-anchor="middle" dy="0.35em" font-size="13" font-weight="500" fill="var(--_text)">S4_DIRECT</text>
<text x="712.925" y="178" text-anchor="middle" dy="0.35em" font-size="13" font-weight="500" fill="#000">&quot;Merge cleanBlocks&lt;br/&gt;directly&quot;</text>
<text x="1047.6" y="241" text-anchor="middle" dy="0.35em" font-size="13" font-weight="500" fill="#000">S4_CATALOG</text>
<text x="1238.85" y="241" text-anchor="middle" dy="0.35em" font-size="13" font-weight="500" fill="#000">&quot;Catalog&lt;br/&gt;match?&quot;</text>
<text x="1537.4850000000001" y="271" text-anchor="middle" dy="0.35em" font-size="13" font-weight="500" fill="#000">&quot;Catalog rejection&lt;br/&gt;+ warning&quot;</text>
<text x="1537.4850000000001" y="211" text-anchor="middle" dy="0.35em" font-size="13" font-weight="500" fill="#000">&quot;Final product list&quot;</text>
<text x="2715.7350000000006" y="241" text-anchor="middle" dy="0.35em" font-size="13" font-weight="500" fill="#000">&quot;source?&quot;</text>
<text x="3057.2700000000004" y="211" text-anchor="middle" dy="0.35em" font-size="13" font-weight="500" fill="#000">&quot;✅ Good&lt;br/&gt;Multiple votes&lt;br/&gt;confidence ≥ 0.9&quot;</text>
<text x="3057.2700000000004" y="271" text-anchor="middle" dy="0.35em" font-size="13" font-weight="500" fill="#000">&quot;⚠️ OK&lt;br/&gt;Single source&lt;br/&gt;confidence 0.7-0.8&quot;</text>
<text x="3057.2700000000004" y="331" text-anchor="middle" dy="0.35em" font-size="13" font-weight="500" fill="#000">&quot;❌ Bad&lt;br/&gt;No products&lt;br/&gt;or rejection&quot;</text>
<text x="712.925" y="250" text-anchor="middle" dy="0.35em" font-size="13" font-weight="500" fill="#000">&quot;Vote logic:&lt;br/&gt;Cheerio vs LLM&lt;br/&gt;Match by name/duration&quot;</text>
<text x="712.925" y="326" text-anchor="middle" dy="0.35em" font-size="13" font-weight="500" fill="#000">&quot;Duplicate removal&quot;</text>
<text x="712.925" y="402" text-anchor="middle" dy="0.35em" font-size="13" font-weight="500" fill="#000">&quot;Source attribution&lt;br/&gt;per product&quot;</text>
<text x="712.925" y="478" text-anchor="middle" dy="0.35em" font-size="13" font-weight="500" fill="#000">&quot;Compute:&lt;br/&gt;price_per_month_krw&quot;</text>
<text x="1797.085" y="241" text-anchor="middle" dy="0.35em" font-size="13" font-weight="500" fill="#000">&quot;finalProducts[</text>
<text x="1974.635" y="241" text-anchor="middle" dy="0.35em" font-size="13" font-weight="500" fill="#000">&quot;sourceAttribution[</text>
<text x="2277.3100000000004" y="241" text-anchor="middle" dy="0.35em" font-size="13" font-weight="500" fill="#000">&quot;confidenceBreakdown:&lt;br/&gt;{ overall, perProduct }&quot;</text>
<text x="2547.8100000000004" y="241" text-anchor="middle" dy="0.35em" font-size="13" font-weight="500" fill="#000">&quot;warnings[</text>
</svg>