<svg xmlns="http://www.w3.org/2000/svg" viewBox="0 0 3581.5 328" width="3581.5" height="328" style="--bg:#FFFFFF;--fg:#27272A;background:var(--bg)">
<style>
  @import url('https://fonts.googleapis.com/css2?family=Inter:wght@400;500;600;700&amp;display=swap');
  text { font-family: 'Inter', system-ui, sans-serif; }
  svg {
    /* Derived from --bg and --fg (overridable via --line, --accent, etc.) */
    --_text:          var(--fg);
    --_text-sec:      var(--muted, color-mix(in srgb, var(--fg) 60%, var(--bg)));
    --_text-muted:    var(--muted, color-mix(in srgb, var(--fg) 40%, var(--bg)));
    --_text-faint:    color-mix(in srgb, var(--fg) 25%, var(--bg));
    --_line:          var(--line, color-mix(in srgb, var(--fg) 30%, var(--bg)));
    --_arrow:         var(--accent, color-mix(in srgb, var(--fg) 50%, var(--bg)));
    --_node-fill:     var(--surface, color-mix(in srgb, var(--fg) 3%, var(--bg)));
    --_node-stroke:   var(--border, color-mix(in srgb, var(--fg) 20%, var(--bg)));
    --_group-fill:    var(--bg);
    --_group-hdr:     color-mix(in srgb, var(--fg) 5%, var(--bg));
    --_inner-stroke:  color-mix(in srgb, var(--fg) 12%, var(--bg));
    --_key-badge:     color-mix(in srgb, var(--fg) 10%, var(--bg));
  }
</style>
<defs>
  <marker id="arrowhead" markerWidth="8" markerHeight="4.8" refX="8" refY="2.4" orient="auto">
    <polygon points="0 0, 8 2.4, 0 4.8" fill="var(--_arrow)" />
  </marker>
  <marker id="arrowhead-start" markerWidth="8" markerHeight="4.8" refX="0" refY="2.4" orient="auto-start-reverse">
    <polygon points="8 0, 0 2.4, 8 4.8" fill="var(--_arrow)" />
  </marker>
</defs>
<rect x="305.04999999999995" y="40" width="564.5" height="248" rx="0" ry="0" fill="var(--_group-fill)" stroke="var(--_node-stroke)" stroke-width="1" />
<rect x="305.04999999999995" y="40" width="564.5" height="28" rx="0" ry="0" fill="var(--_group-hdr)" stroke="var(--_node-stroke)" stroke-width="1" />
<text x="317.04999999999995" y="54" dy="0.35em" font-size="12" font-weight="600" fill="var(--_text-sec)">&quot;Noise Filter (TypeScript)&quot;</text>
<rect x="2602.8500000000004" y="116" width="938.6500000000001" height="96" rx="0" ry="0" fill="var(--_group-fill)" stroke="var(--_node-stroke)" stroke-width="1" />
<rect x="2602.8500000000004" y="116" width="938.6500000000001" height="28" rx="0" ry="0" fill="var(--_group-hdr)" stroke="var(--_node-stroke)" stroke-width="1" />
<text x="2614.8500000000004" y="130" dy="0.35em" font-size="12" font-weight="600" fill="var(--_text-sec)">&quot;Stage2Output&quot;</text>
<polyline points="265.05,182 587.3,182 587.3,106" fill="none" stroke="var(--_line)" stroke-width="0.75" marker-end="url(#arrowhead)" />
<polyline points="587.3,258 909.55,258 909.55,182" fill="none" stroke="var(--_line)" stroke-width="0.75" marker-end="url(#arrowhead)" />
<polyline points="1034.5,182 1074.5,182" fill="none" stroke="var(--_line)" stroke-width="0.75" marker-end="url(#arrowhead)" />
<polyline points="1514.0500000000002,182 1554.05,182" fill="none" stroke="var(--_line)" stroke-width="0.75" marker-end="url(#arrowhead)" />
<polyline points="1685.5866640440597,157.4366640440598 1762.75,157.4366640440598 1762.75,122 1829.65,122" fill="none" stroke="var(--_line)" stroke-width="0.75" marker-end="url(#arrowhead)" />
<polyline points="2083.3,122 2223.4000000000005,122" fill="none" stroke="var(--_line)" stroke-width="0.75" marker-end="url(#arrowhead)" />
<polyline points="1710.1499999999999,182 1815.3500000000001,182" fill="none" stroke="var(--_line)" stroke-width="0.75" marker-end="url(#arrowhead)" />
<polyline points="2097.6000000000004,182 2137.6000000000004,182" fill="none" stroke="var(--_line)" stroke-width="0.75" marker-end="url(#arrowhead)" />
<polyline points="1685.5866640440597,206.5633359559402 1762.75,206.5633359559402 1762.75,242 1822.5,242" fill="none" stroke="var(--_line)" stroke-width="0.75" marker-end="url(#arrowhead)" />
<polyline points="2090.4500000000003,242 2216.2500000000005,242" fill="none" stroke="var(--_line)" stroke-width="0.75" marker-end="url(#arrowhead)" />
<polyline points="2477.05,122 2681.3250000000003,122 2681.3250000000003,182" fill="none" stroke="var(--_line)" stroke-width="0.75" marker-end="url(#arrowhead)" />
<polyline points="2562.8500000000004,182 3427.275,182" fill="none" stroke="var(--_line)" stroke-width="0.75" marker-end="url(#arrowhead)" />
<polyline points="2484.2000000000003,242 3011.4,242 3011.4,182" fill="none" stroke="var(--_line)" stroke-width="0.75" marker-end="url(#arrowhead)" />
<polyline points="587.3,124 587.3,164" fill="none" stroke="var(--_line)" stroke-width="0.75" marker-end="url(#arrowhead)" />
<polyline points="587.3,200 587.3,240" fill="none" stroke="var(--_line)" stroke-width="0.75" marker-end="url(#arrowhead)" />
<rect x="1731.87" y="108.5" width="61.760000000000005" height="27" rx="4" ry="4" fill="var(--bg)" stroke="var(--_inner-stroke)" stroke-width="0.5" />
<text x="1762.75" y="122" text-anchor="middle" dy="0.35em" font-size="11" font-weight="400" fill="var(--_text-muted)">&quot;≥ 0.85&quot;</text>
<rect x="1726.15" y="168.5" width="73.2" height="27" rx="4" ry="4" fill="var(--bg)" stroke="var(--_inner-stroke)" stroke-width="0.5" />
<text x="1762.75" y="182" text-anchor="middle" dy="0.35em" font-size="11" font-weight="400" fill="var(--_text-muted)">&quot;0.6-0.85&quot;</text>
<rect x="1734.73" y="228.5" width="56.04" height="27" rx="4" ry="4" fill="var(--bg)" stroke="var(--_inner-stroke)" stroke-width="0.5" />
<text x="1762.75" y="242" text-anchor="middle" dy="0.35em" font-size="11" font-weight="400" fill="var(--_text-muted)">&quot;&lt; 0.3&quot;</text>
<rect x="40" y="164" width="225.05" height="36" rx="0" ry="0" fill="#e6f3ff" stroke="#0066cc" stroke-width="2px" />
<rect x="909.55" y="164" width="124.95" height="36" rx="0" ry="0" fill="var(--_node-fill)" stroke="var(--_node-stroke)" stroke-width="0.75" />
<rect x="1074.5" y="164" width="439.55" height="36" rx="0" ry="0" fill="#cce5ff" stroke="#0066cc" stroke-width="1.5px" />
<polygon points="1632.1,103.94999999999999 1710.1499999999999,182 1632.1,260.05 1554.05,182" fill="#fff0e6" stroke="#ff9900" stroke-width="1.5px" />
<rect x="1829.65" y="104" width="253.65" height="36" rx="0" ry="0" fill="#d1e7dd" stroke="#198754" stroke-width="2px" />
<rect x="2223.4000000000005" y="104" width="253.65" height="36" rx="0" ry="0" fill="#d1e7dd" stroke="#198754" stroke-width="2px" />
<rect x="1815.3500000000001" y="164" width="282.25" height="36" rx="0" ry="0" fill="#fff0e6" stroke="#ff9900" stroke-width="2px" />
<rect x="2137.6000000000004" y="164" width="425.25000000000006" height="36" rx="0" ry="0" fill="#fff0e6" stroke="#ff9900" stroke-width="2px" />
<rect x="1822.5" y="224" width="267.95000000000005" height="36" rx="0" ry="0" fill="#f8d7da" stroke="#dc3545" stroke-width="2px" />
<rect x="2216.2500000000005" y="224" width="267.95000000000005" height="36" rx="0" ry="0" fill="#f8d7da" stroke="#dc3545" stroke-width="2px" />
<rect x="542.6999999999999" y="88" width="89.2" height="36" rx="0" ry="0" fill="#cce5ff" stroke="#0066cc" stroke-width="1.5px" />
<rect x="381.82499999999993" y="164" width="410.95000000000005" height="36" rx="0" ry="0" fill="#cce5ff" stroke="#0066cc" stroke-width="1.5px" />
<rect x="321.04999999999995" y="240" width="532.5" height="36" rx="0" ry="0" fill="#cce5ff" stroke="#0066cc" stroke-width="1.5px" />
<rect x="2618.8500000000004" y="164" width="124.95" height="36" rx="0" ry="0" fill="#d1e7dd" stroke="#198754" stroke-width="1.5px" />
<rect x="2767.8" y="164" width="139.25" height="36" rx="0" ry="0" fill="#d1e7dd" stroke="#198754" stroke-width="1.5px" />
<rect x="2931.05" y="164" width="160.70000000000002" height="36" rx="0" ry="0" fill="#d1e7dd" stroke="#198754" stroke-width="1.5px" />
<rect x="3115.7500000000005" y="164" width="189.3" height="36" rx="0" ry="0" fill="#d1e7dd" stroke="#198754" stroke-width="1.5px" />
<rect x="3329.05" y="164" width="196.45000000000002" height="36" rx="0" ry="0" fill="#d1e7dd" stroke="#198754" stroke-width="1.5px" />
<text x="152.525" y="182" text-anchor="middle" dy="0.35em" font-size="13" font-weight="500" fill="#000">&quot;bodyText&lt;br/&gt;from Stage 1&quot;</text>
<text x="972.025" y="182" text-anchor="middle" dy="0.35em" font-size="13" font-weight="500" fill="var(--_text)">&quot;cleanBlocks[</text>
<text x="1294.275" y="182" text-anchor="middle" dy="0.35em" font-size="13" font-weight="500" fill="#000">&quot;Calculate signalScore:&lt;br/&gt;signal_blocks / total_blocks&quot;</text>
<text x="1632.1" y="182" text-anchor="middle" dy="0.35em" font-size="13" font-weight="500" fill="#000">&quot;signalScore?&quot;</text>
<text x="1956.4750000000001" y="122" text-anchor="middle" dy="0.35em" font-size="13" font-weight="500" fill="#000">&quot;✅ High signal&lt;br/&gt;LLM SKIPPED&quot;</text>
<text x="2350.2250000000004" y="122" text-anchor="middle" dy="0.35em" font-size="13" font-weight="500" fill="#000">&quot;skipped=true&lt;br/&gt;llmProducts=[</text>
<text x="1956.4750000000001" y="182" text-anchor="middle" dy="0.35em" font-size="13" font-weight="500" fill="#000">&quot;⚠️ Medium signal&lt;br/&gt;LLM required&quot;</text>
<text x="2350.2250000000004" y="182" text-anchor="middle" dy="0.35em" font-size="13" font-weight="500" fill="#000">&quot;llmRequired=true&lt;br/&gt;contentForLlm=&lt;br/&gt;filtered text&quot;</text>
<text x="1956.475" y="242" text-anchor="middle" dy="0.35em" font-size="13" font-weight="500" fill="#000">&quot;❌ Low signal&lt;br/&gt;Noise-dominant&quot;</text>
<text x="2350.2250000000004" y="242" text-anchor="middle" dy="0.35em" font-size="13" font-weight="500" fill="#000">&quot;Proceed with&lt;br/&gt;low confidence&quot;</text>
<text x="587.3" y="106" text-anchor="middle" dy="0.35em" font-size="13" font-weight="500" fill="#000">S2_SPLIT</text>
<text x="587.3" y="182" text-anchor="middle" dy="0.35em" font-size="13" font-weight="500" fill="#000">&quot;Apply noise_patterns:&lt;br/&gt;license/payment/FAQ regex&quot;</text>
<text x="587.3" y="258" text-anchor="middle" dy="0.35em" font-size="13" font-weight="500" fill="#000">&quot;Score each block:&lt;br/&gt;hasPrice + hasDuration&lt;br/&gt;+ hasProductKeyword&quot;</text>
<text x="2681.3250000000003" y="182" text-anchor="middle" dy="0.35em" font-size="13" font-weight="500" fill="#000">&quot;cleanBlocks[</text>
<text x="2837.425" y="182" text-anchor="middle" dy="0.35em" font-size="13" font-weight="500" fill="#000">&quot;filterReasons[</text>
<text x="3011.4" y="182" text-anchor="middle" dy="0.35em" font-size="13" font-weight="500" fill="#000">&quot;signalScore: 0–1&quot;</text>
<text x="3210.4000000000005" y="182" text-anchor="middle" dy="0.35em" font-size="13" font-weight="500" fill="#000">&quot;llmRequired: boolean&quot;</text>
<text x="3427.275" y="182" text-anchor="middle" dy="0.35em" font-size="13" font-weight="500" fill="#000">&quot;contentForLlm: string&quot;</text>
</svg>